<svg width="140" height="28" viewBox="0 0 140 28" fill="none" xmlns="http://www.w3.org/2000/svg">
<path d="M34.0283 0.72168C30.5137 0.72168 29.2801 3.16557 29.2801 5.44653V6.84304H28.5353C28 6.84304 27.5811 7.26199 27.5811 7.79732C27.5811 8.33265 28 8.7516 28.5353 8.7516H29.2801V18.3875C29.2801 18.9461 29.7224 19.4116 30.3042 19.4116C30.8628 19.4116 31.3283 18.9694 31.3283 18.3875V8.7516H33.586C34.1214 8.7516 34.5403 8.33265 34.5403 7.79732C34.5403 7.26199 34.1214 6.84304 33.586 6.84304H31.3283V5.44653C31.3283 4.1664 31.7939 2.65351 34.0515 2.65351C34.5869 2.65351 35.0058 2.23456 35.0058 1.69923C34.9825 1.14063 34.5636 0.72168 34.0283 0.72168Z" fill="white"/>
<path d="M41.9417 6.51709C40.4288 6.51709 39.1486 7.14552 38.4271 8.16963V7.63429C38.4271 7.07569 37.9849 6.61019 37.403 6.61019C36.8444 6.61019 36.3789 7.05241 36.3789 7.63429V18.3874C36.3789 18.946 36.8211 19.4115 37.403 19.4115C37.9616 19.4115 38.4271 18.9693 38.4271 18.3874V12.4522C38.4271 9.96181 39.7538 8.4722 41.9417 8.4722C42.477 8.4722 42.9192 8.02997 42.9192 7.49464C42.9425 6.95931 42.5003 6.51709 41.9417 6.51709Z" fill="white"/>
<path d="M54.3939 11.8002C54.3939 11.2183 54.3008 9.70546 53.4163 8.4486C52.5086 7.14519 51.0888 6.47021 49.157 6.47021C45.5726 6.47021 43.5244 8.84428 43.5244 12.9873C43.5244 17.2699 45.5726 19.5508 49.413 19.5508C51.9966 19.5508 53.4163 18.2707 53.6724 18.0147C53.8353 17.8518 54.0215 17.6423 54.0215 17.2932C54.0215 16.7811 53.6025 16.3621 53.0905 16.3621C52.8345 16.3621 52.6715 16.432 52.5086 16.5484C51.7638 17.107 50.9026 17.6656 49.4363 17.6656C47.1321 17.6656 45.6657 16.1527 45.5959 13.6855H53.1603C54.3939 13.6622 54.3939 12.545 54.3939 11.8002ZM49.157 8.33223C51.2518 8.33223 52.3457 9.51926 52.3922 11.8468H45.6192C45.8054 9.58908 47.0622 8.33223 49.157 8.33223Z" fill="white"/>
<path d="M61.2366 11.9633C59.7237 11.4513 58.4203 10.9858 58.4203 9.86855C58.4203 8.63496 59.7935 8.44876 60.6082 8.44876C62.0745 8.44876 62.796 8.96082 63.3779 9.51942C63.5641 9.70562 63.7968 9.79872 64.0529 9.79872C64.5649 9.79872 64.9839 9.37977 64.9839 8.86772C64.9839 8.58842 64.8675 8.40221 64.7744 8.26256C63.9132 7.12208 62.4469 6.49365 60.6082 6.49365C58.0013 6.49365 56.3954 7.79706 56.3954 9.86855C56.3954 12.4055 58.6298 13.1736 60.5849 13.8253C62.0745 14.3374 63.3546 14.7563 63.3546 15.8503C63.3546 17.3399 61.7021 17.5726 60.7013 17.5726C59.3513 17.5726 58.3039 17.1537 57.4427 16.3158C57.1867 16.0597 56.9074 16.0132 56.7445 16.0132C56.2324 16.0132 55.8135 16.4321 55.8135 16.9442C55.8135 17.1537 55.8833 17.3166 56.0462 17.5493C56.8143 18.5269 58.5599 19.5277 60.7013 19.5277C63.6339 19.5277 65.3796 18.1545 65.3796 15.8735C65.3796 13.4064 63.1917 12.6383 61.2366 11.9633Z" fill="white"/>
<path d="M73.3168 6.47048C71.9203 6.47048 70.6635 7.02909 69.9652 7.91354V1.0241C69.9652 0.465501 69.523 0 68.9411 0C68.3825 0 67.917 0.442226 67.917 1.0241V18.4106C67.917 18.9692 68.3592 19.4347 68.9411 19.4347C69.4997 19.4347 69.9652 18.9925 69.9652 18.4106V11.8703C69.9652 9.51953 71.1057 8.33249 73.3168 8.33249C75.4581 8.33249 76.3426 9.31005 76.3426 11.6841V18.4106C76.3426 18.9692 76.7848 19.4347 77.3667 19.4347C77.9253 19.4347 78.3908 18.9925 78.3908 18.4106V11.335C78.3443 8.09974 76.6452 6.47048 73.3168 6.47048Z" fill="white"/>
<path d="M95.3115 6.6333C94.8692 6.6333 94.5201 6.88933 94.3572 7.30828L91.4478 15.5942L89.0737 7.30828C88.9806 6.98243 88.6315 6.6333 88.1194 6.6333C87.6074 6.6333 87.2583 6.98243 87.1652 7.30828L84.7911 15.5709L81.8817 7.285C81.7188 6.86605 81.3697 6.6333 80.9274 6.6333C80.3688 6.6333 79.9033 7.07553 79.9033 7.65741C79.9033 7.79706 79.9266 7.9367 79.9964 8.07635L83.8834 18.7596C84.0463 19.1786 84.3954 19.4113 84.8377 19.4113C85.3032 19.4113 85.6988 19.1088 85.8152 18.6898L88.0962 10.8461L90.3771 18.6898C90.4935 19.1088 90.9125 19.4113 91.3547 19.4113C91.7969 19.4113 92.146 19.1553 92.309 18.7364L96.1959 8.05309C96.2657 7.91343 96.289 7.7505 96.289 7.61085C96.3123 7.07552 95.8701 6.6333 95.3115 6.6333Z" fill="white"/>
<path d="M102.713 6.47021C99.0122 6.47021 96.9873 8.79773 96.9873 12.9873C96.9873 17.2233 99.0122 19.5508 102.713 19.5508C106.414 19.5508 108.439 17.2233 108.439 12.9873C108.439 8.77445 106.39 6.47021 102.713 6.47021ZM102.713 17.6888C100.246 17.6888 99.0355 16.1527 99.0355 13.0105C99.0355 9.91494 100.269 8.3555 102.713 8.3555C105.157 8.3555 106.39 9.91494 106.39 13.0105C106.39 16.1527 105.18 17.6888 102.713 17.6888Z" fill="white"/>
<path d="M116.306 6.51709C114.793 6.51709 113.513 7.14552 112.791 8.16963V7.63429C112.791 7.07569 112.349 6.61019 111.767 6.61019C111.209 6.61019 110.743 7.05241 110.743 7.63429V18.3874C110.743 18.946 111.185 19.4115 111.767 19.4115C112.326 19.4115 112.791 18.9693 112.791 18.3874V12.4522C112.791 9.96181 114.118 8.4722 116.306 8.4722C116.841 8.4722 117.283 8.02997 117.283 7.49464C117.283 6.95931 116.841 6.51709 116.306 6.51709Z" fill="white"/>
<path d="M124.033 11.8238L128.246 8.44887C128.595 8.16957 128.642 7.82044 128.642 7.63424C128.642 7.07564 128.2 6.61014 127.618 6.61014C127.455 6.61014 127.176 6.63341 126.92 6.86616L120.938 11.7539V1.0241C120.938 0.465501 120.496 0 119.914 0C119.355 0 118.89 0.442226 118.89 1.0241V18.4106C118.89 18.9692 119.332 19.4347 119.914 19.4347C120.472 19.4347 120.938 18.9925 120.938 18.4106V14.2211L122.358 13.0806L126.943 18.9692C127.199 19.2718 127.478 19.4347 127.804 19.4347C128.363 19.4347 128.828 18.9925 128.828 18.4106C128.828 18.2477 128.805 18.0149 128.619 17.7822L124.033 11.8238Z" fill="white"/>
<path d="M135.508 11.9633C133.995 11.4513 132.692 10.9858 132.692 9.86855C132.692 8.63496 134.065 8.44876 134.88 8.44876C136.346 8.44876 137.067 8.96082 137.649 9.51942C137.836 9.70562 138.068 9.79872 138.324 9.79872C138.836 9.79872 139.255 9.37977 139.255 8.86772C139.255 8.56514 139.092 8.35566 139.046 8.26256C138.185 7.12208 136.718 6.49365 134.88 6.49365C132.273 6.49365 130.667 7.79706 130.667 9.86855C130.667 12.4055 132.901 13.1736 134.856 13.8253C136.346 14.3374 137.626 14.7563 137.626 15.8503C137.626 17.3399 135.974 17.5726 134.973 17.5726C133.623 17.5726 132.575 17.1537 131.714 16.3158C131.458 16.0597 131.202 16.0132 131.016 16.0132C130.504 16.0132 130.085 16.4321 130.085 16.9442C130.085 17.1537 130.155 17.3166 130.318 17.5493C131.086 18.5269 132.831 19.5277 134.973 19.5277C137.905 19.5277 139.651 18.1545 139.651 15.8735C139.651 13.4064 137.463 12.6383 135.508 11.9633Z" fill="white"/>
<path d="M0.139648 17.8287C0.535326 20.4123 1.74563 22.7398 3.49127 24.4854L7.56441 20.4123C7.56441 16.2926 9.70573 12.2893 13.5228 10.0781L0.139648 17.8287Z" fill="#9B65C3"/>
<path d="M7.56441 20.4125C5.53948 20.4125 3.49127 19.9004 1.60598 18.8065C1.09393 18.5039 0.605151 18.1781 0.139648 17.8057C0.535326 20.3892 1.74563 22.7167 3.49127 24.4624L7.56441 20.4125Z" fill="#9B65C3"/>
<path d="M7.56436 20.4125L3.49121 24.4857C5.26012 26.2546 7.56436 27.4649 10.1479 27.8373L17.8752 14.4541C15.6874 18.2712 11.6841 20.4125 7.56436 20.4125Z" fill="#BE63C5"/>
<path d="M9.17034 26.394C8.07641 24.5087 7.56436 22.4605 7.56436 20.4355L3.49121 24.5087C5.26012 26.2776 7.56436 27.4879 10.1479 27.8603C9.79877 27.3948 9.47292 26.906 9.17034 26.394Z" fill="#BF63C6"/>
<path d="M22.74 4.77148L13.5463 10.1015C9.72917 12.3126 5.19052 12.1497 1.62942 10.1015C0.605316 11.8471 0.0234375 13.8953 0.0234375 16.0599C0.0234375 16.6651 0.0699874 17.247 0.163088 17.8288C0.628591 18.2012 1.11737 18.5271 1.62942 18.8297C3.51471 19.9236 5.56292 20.4356 7.58786 20.4356L22.996 5.02751C22.9029 4.93441 22.8331 4.84131 22.74 4.77148Z" fill="#3278B1"/>
<path d="M1.60582 18.8297C3.4911 19.9237 5.53932 20.4357 7.56425 20.4357C7.56425 16.316 9.70556 12.3127 13.5227 10.1016L0.116211 17.8289C0.604989 18.178 1.09377 18.5272 1.60582 18.8297Z" fill="#3278B2"/>
<path d="M1.60598 10.1016C0.581878 11.8472 0 13.8954 0 16.06C0 16.6652 0.0465503 17.247 0.139651 17.8289L13.5461 10.1016C9.70573 12.2894 5.16708 12.1498 1.60598 10.1016Z" fill="#45A4EC"/>
<path d="M22.9963 5.00409C22.9265 4.93426 22.8334 4.84116 22.7403 4.77134C22.6239 4.67824 22.5075 4.58513 22.3679 4.51531C21.9256 4.25928 21.4136 4.11963 20.8783 4.11963H11.9406C7.51833 4.11963 3.67793 6.51697 1.60645 10.0781C5.16754 12.1263 9.70619 12.2892 13.5233 10.0781C9.70619 12.2892 7.56488 16.2925 7.56488 20.4122C11.6846 20.4122 15.6879 18.2709 17.899 14.4538L23.2058 5.26012C23.1359 5.16702 23.0661 5.07391 22.9963 5.00409Z" fill="#19BB7D"/>
<path d="M13.5466 10.1013L22.7403 4.7946C22.6239 4.7015 22.5075 4.6084 22.3679 4.53857L1.60645 10.1013C5.16754 12.1495 9.70619 12.2892 13.5466 10.1013Z" fill="#08C7FB"/>
<path d="M20.8783 4.11963H11.9406C7.51833 4.11963 3.67793 6.51697 1.60645 10.0781L22.3679 4.51531C21.9256 4.28256 21.4369 4.11963 20.8783 4.11963Z" fill="#59F2F6"/>
<path d="M17.8986 14.4541L23.2053 5.26042C23.1355 5.16732 23.0657 5.0975 22.9726 5.00439L7.56445 20.4125C7.56445 22.4375 8.07651 24.4857 9.17044 26.371C9.47301 26.883 9.79887 27.3718 10.1713 27.8373C10.7531 27.9304 11.335 27.9769 11.9402 27.9769C14.1048 27.9769 16.153 27.3951 17.8986 26.371C15.8504 22.8099 15.6875 18.2712 17.8986 14.4541Z" fill="#DA3757"/>
<path d="M7.56445 20.4125C7.56445 22.4375 8.07651 24.4857 9.17044 26.371C9.47301 26.883 9.79887 27.3718 10.1713 27.8373L17.8986 14.4541C15.6875 18.2712 11.6842 20.4125 7.56445 20.4125Z" fill="#D33C4E"/>
<path d="M17.8982 14.4541L10.1709 27.8606C10.7528 27.9537 11.3347 28.0002 11.9398 28.0002C14.1044 28.0002 16.1526 27.4183 17.8982 26.3942C15.85 22.8099 15.6871 18.2712 17.8982 14.4541Z" fill="#EE5A24"/>
<path d="M23.4615 5.63266C23.3917 5.49301 23.2986 5.37664 23.2055 5.26026C23.1357 5.16716 23.0659 5.09734 22.9728 5.00424C22.9029 4.93441 22.8098 4.84131 22.7167 4.77148L13.5463 10.1015C9.7292 12.3126 7.58789 16.3159 7.58789 20.4356C11.7076 20.4356 15.7109 18.2943 17.922 14.4772C15.7109 18.2943 15.8738 22.833 17.922 26.3941C21.4831 24.3226 23.8805 20.4822 23.8805 16.0599V7.12227C23.8572 6.56367 23.7176 6.05161 23.4615 5.63266Z" fill="#8BDF55"/>
<path d="M22.74 4.77148L13.5463 10.1015C9.7292 12.3126 7.58789 16.3159 7.58789 20.4356L22.996 5.02751C22.9029 4.93441 22.8331 4.84131 22.74 4.77148Z" fill="#25C16F"/>
<path d="M7.56445 20.4125C11.6842 20.4125 15.6875 18.2712 17.8986 14.4541L23.2053 5.26042C23.1355 5.16732 23.0657 5.0975 22.9726 5.00439L7.56445 20.4125Z" fill="#8BDF55"/>
<path d="M23.2054 5.26025L17.8986 14.4539C15.6875 18.2711 15.8504 22.8097 17.8986 26.3708L23.4614 5.60938C23.3916 5.49301 23.2985 5.37663 23.2054 5.26025Z" fill="#FFBB00"/>
<path d="M17.8984 26.3942C21.4595 24.3227 23.8569 20.4824 23.8569 16.0601V7.12243C23.8569 6.5871 23.7172 6.07504 23.4612 5.63281L17.8984 26.3942Z" fill="#FFA800"/>
</svg>
