<svg width="75" height="13" viewBox="0 0 75 13" fill="none" xmlns="http://www.w3.org/2000/svg">
<mask id="mask0_6_17" style="mask-type:luminance" maskUnits="userSpaceOnUse" x="0" y="0" width="75" height="13">
<path d="M75 0H0V12.5893H75V0Z" fill="white"/>
</mask>
<g mask="url(#mask0_6_17)">
<path d="M12.5893 12.5893H0V0L6.29464 6.29464L12.5893 0V12.5893Z" fill="white"/>
<path d="M74.9999 0V12.5893H66.6025" fill="white"/>
<path opacity="0.3" d="M45.6293 0V12.5893H33.04V0" fill="white"/>
<path d="M45.6293 12.5893H33.04V0" fill="white"/>
<path d="M22.821 0L29.1023 12.5893H16.5264L22.821 0Z" fill="white"/>
<path d="M55.862 12.5893C59.3385 12.5893 62.1567 9.77108 62.1567 6.29464C62.1567 2.81821 59.3385 0 55.862 0C52.3856 0 49.5674 2.81821 49.5674 6.29464C49.5674 9.77108 52.3856 12.5893 55.862 12.5893Z" fill="white"/>
</g>
</svg>
