<svg width="130" height="28" viewBox="0 0 130 28" fill="none" xmlns="http://www.w3.org/2000/svg">
<path d="M36.0189 10.1311C36.0189 9.14994 36.273 8.28399 36.7811 7.5318C37.2893 6.78103 37.993 6.19378 38.8937 5.77289C39.7944 5.352 40.8364 5.14014 42.0211 5.14014C43.2059 5.14014 44.1494 5.3392 44.9887 5.73876C45.8266 6.1369 46.4818 6.70424 46.9514 7.44079C47.421 8.17735 47.6708 9.0504 47.7022 10.0628H44.7475C44.7161 9.3419 44.4548 8.77882 43.9624 8.37215C43.4699 7.96548 42.8076 7.76215 41.9769 7.76215C41.069 7.76215 40.3411 7.96548 39.7958 8.37215C39.2491 8.77882 38.9765 9.33478 38.9765 10.0401C38.9765 10.6387 39.142 11.1093 39.4732 11.4549C39.8044 11.8004 40.3239 12.0563 41.0319 12.2255L43.6869 12.8242C45.1329 13.1313 46.2105 13.656 46.9185 14.3996C47.6265 15.1433 47.9805 16.1443 47.9805 17.4013C47.9805 18.4294 47.7264 19.3337 47.2183 20.1157C46.7101 20.8978 45.9907 21.4993 45.0601 21.9216C44.128 22.3425 43.0403 22.5543 41.7927 22.5543C40.5452 22.5543 39.5688 22.351 38.6753 21.9443C37.7831 21.5377 37.0851 20.9675 36.5856 20.2309C36.086 19.4944 35.819 18.6284 35.7891 17.6317H38.7438C38.7581 18.3369 39.0393 18.8929 39.586 19.2996C40.1327 19.7062 40.8749 19.9096 41.8141 19.9096C42.7534 19.9096 43.5798 19.7062 44.1579 19.2996C44.7346 18.8929 45.0229 18.3526 45.0229 17.6786C45.0229 17.0956 44.8688 16.6321 44.5619 16.2865C44.2536 15.941 43.754 15.6993 43.0617 15.5613L40.3839 14.9627C38.9522 14.6556 37.8674 14.0996 37.128 13.2948C36.3886 12.49 36.0203 11.4364 36.0203 10.1325L36.0189 10.1311Z" fill="white"/>
<path d="M50.2417 27.5183V10.8904H52.851L53.0351 12.6152C53.3734 11.9555 53.8972 11.4464 54.6052 11.0852C55.3132 10.7255 56.0912 10.5449 56.9376 10.5449C58.0296 10.5449 58.9731 10.7909 59.7653 11.2815C60.5575 11.772 61.177 12.4546 61.6238 13.329C62.0706 14.2035 62.2932 15.2387 62.2932 16.4345C62.2932 17.6303 62.0848 18.6655 61.6695 19.5855C61.2541 20.5054 60.6503 21.2292 59.8567 21.7581C59.0645 22.2871 58.0981 22.5516 56.959 22.5516C56.1126 22.5516 55.3389 22.3909 54.6381 22.0681C53.9372 21.7468 53.4105 21.3017 53.0565 20.7344V27.5183H50.2402H50.2417ZM53.0808 16.571C53.0808 17.2464 53.2107 17.8436 53.4733 18.3655C53.7345 18.8873 54.1085 19.2968 54.5924 19.5954C55.0777 19.894 55.643 20.0433 56.2896 20.0433C56.9362 20.0433 57.52 19.894 57.9982 19.5954C58.4749 19.2968 58.8375 18.8859 59.083 18.3655C59.3285 17.845 59.4527 17.2464 59.4527 16.571C59.4527 15.8956 59.3285 15.2984 59.083 14.7765C58.8361 14.2561 58.4749 13.8452 57.9982 13.5466C57.5214 13.248 56.9519 13.0973 56.2896 13.0973C55.6273 13.0973 55.0777 13.2437 54.5924 13.5338C54.1085 13.8253 53.7345 14.2319 53.4733 14.7524C53.2107 15.2742 53.0808 15.8799 53.0808 16.5696V16.571Z" fill="white"/>
<path d="M69.6343 22.5501C68.5109 22.5501 67.5146 22.2928 66.6439 21.7795C65.7746 21.2662 65.0937 20.5609 64.6012 19.6637C64.1088 18.7664 63.8633 17.7355 63.8633 16.571C63.8633 15.4064 64.1017 14.3485 64.5784 13.4428C65.0552 12.5384 65.7246 11.8289 66.5868 11.3156C67.4489 10.8023 68.4338 10.5449 69.5415 10.5449C70.6492 10.5449 71.6883 10.7866 72.5205 11.2701C73.3527 11.7535 73.995 12.4233 74.4489 13.2821C74.9028 14.1409 75.1298 15.1676 75.1298 16.3634V17.2137L65.3406 17.2365L65.3877 15.442H72.3378C72.3378 14.6599 72.0866 14.0315 71.587 13.5565C71.0874 13.0816 70.4136 12.8442 69.5672 12.8442C68.9049 12.8442 68.3468 12.9821 67.8928 13.2579C67.4389 13.5338 67.0964 13.9476 66.8651 14.4993C66.6339 15.051 66.5183 15.7264 66.5183 16.5227C66.5183 17.7498 66.7838 18.6769 67.3147 19.3053C67.8457 19.9338 68.6337 20.2481 69.6814 20.2481C70.4508 20.2481 71.086 20.103 71.5855 19.8115C72.0851 19.52 72.4134 19.1063 72.5662 18.5702H75.1755C74.9285 19.8115 74.3176 20.7856 73.3398 21.4908C72.362 22.1961 71.1259 22.5487 69.6343 22.5487V22.5501Z" fill="white"/>
<path d="M80.2088 22.2515H77.3926V10.8904H80.0019L80.2331 12.3621C80.5871 11.7948 81.091 11.3497 81.7462 11.0284C82.3999 10.707 83.1122 10.5449 83.8816 10.5449C85.3133 10.5449 86.3938 10.9672 87.1246 11.8104C87.8555 12.6536 88.2209 13.804 88.2209 15.26V22.2515H85.4046V15.9269C85.4046 14.9756 85.1891 14.2675 84.758 13.7997C84.3269 13.3319 83.7417 13.0987 83.0037 13.0987C82.1259 13.0987 81.4407 13.3745 80.9482 13.9262C80.4558 14.4779 80.2088 15.2145 80.2088 16.1345V22.2515Z" fill="white"/>
<path d="M95.6769 22.5501C94.5692 22.5501 93.6186 22.3012 92.8264 21.8021C92.0342 21.3045 91.4175 20.6106 90.9793 19.7205C90.5411 18.8318 90.3213 17.7966 90.3213 16.615C90.3213 15.4334 90.5411 14.3883 90.9793 13.4754C91.4175 12.564 92.0527 11.8459 92.8835 11.3255C93.7142 10.805 94.6991 10.5434 95.8382 10.5434C96.6376 10.5434 97.3698 10.7012 98.0307 11.0155C98.693 11.3297 99.1997 11.7705 99.5537 12.3379V5.14014H102.347V22.2515H99.7607L99.5766 20.4812C99.2383 21.1253 98.7187 21.6315 98.0179 21.9998C97.317 22.3681 96.5362 22.5515 95.6741 22.5515L95.6769 22.5501ZM96.2993 19.975C96.9616 19.975 97.5311 19.8328 98.0079 19.5498C98.4846 19.2669 98.8586 18.8602 99.1284 18.3312C99.3967 17.8023 99.5323 17.2008 99.5323 16.5254C99.5323 15.85 99.3981 15.2343 99.1284 14.7196C98.8586 14.2063 98.4846 13.7996 98.0079 13.501C97.5311 13.2024 96.9616 13.0531 96.2993 13.0531C95.6369 13.0531 95.0902 13.2024 94.6135 13.501C94.1367 13.7996 93.7713 14.2105 93.5172 14.731C93.2632 15.2528 93.1361 15.85 93.1361 16.5254C93.1361 17.2008 93.2632 17.798 93.5172 18.3199C93.7713 18.8417 94.1367 19.2484 94.6135 19.5384C95.0902 19.8299 95.6526 19.975 96.2993 19.975Z" fill="white"/>
<path d="M112.158 11.0253H107.268V8.72748C107.268 8.06629 107.381 7.57715 107.602 7.27286C107.81 6.98848 108.233 6.84344 108.86 6.84344H109.993V5.56087L109.843 5.53101C109.679 5.49831 109.492 5.4784 109.271 5.46987C109.061 5.46276 108.862 5.4585 108.675 5.4585C108.187 5.4585 107.723 5.56514 107.299 5.777C106.867 5.99314 106.51 6.34719 106.239 6.83064C105.971 7.30841 105.835 7.94685 105.835 8.72748V11.0253H104.104V12.3178H105.835V22.4376H107.271V12.3178H112.161V22.4376H113.597V5.45992H112.161V11.0253H112.158Z" fill="#E92589"/>
<path d="M126.617 13.663C126.126 12.7715 125.448 12.0563 124.6 11.5358C123.751 11.014 122.766 10.7495 121.674 10.7495C120.582 10.7495 119.617 11.014 118.759 11.5358C117.903 12.0563 117.22 12.7729 116.731 13.663C116.241 14.5531 115.991 15.5854 115.991 16.7315C115.991 17.8776 116.24 18.89 116.729 19.7872C117.22 20.6859 117.903 21.4053 118.759 21.9272C119.617 22.449 120.596 22.7135 121.674 22.7135C122.751 22.7135 123.751 22.449 124.6 21.9272C125.448 21.4068 126.126 20.6859 126.617 19.7872C127.106 18.8886 127.355 17.8605 127.355 16.7315C127.355 15.6025 127.106 14.5546 126.615 13.663H126.617ZM121.674 21.3755C120.852 21.3755 120.115 21.1764 119.487 20.7825C118.856 20.3887 118.355 19.8355 117.995 19.1417C117.634 18.4449 117.45 17.633 117.45 16.7315C117.45 15.83 117.633 15.001 117.994 14.3114C118.354 13.6246 118.856 13.0758 119.486 12.6805C120.114 12.288 120.849 12.0875 121.672 12.0875C122.496 12.0875 123.23 12.2866 123.858 12.6805C124.487 13.0743 124.99 13.6232 125.349 14.3114C125.71 15.0025 125.893 15.8158 125.893 16.7315C125.893 17.6472 125.71 18.4435 125.348 19.1417C124.988 19.837 124.486 20.3887 123.856 20.7825C123.228 21.175 122.492 21.3755 121.669 21.3755H121.674Z" fill="#E92589"/>
<path d="M15.5724 1.05203L3.66498 13.7341C3.56791 13.8365 3.51367 13.973 3.51367 14.1152V15.2527C3.51367 15.5612 3.7649 15.8115 4.07464 15.8115H27.8909C28.2006 15.8115 28.4519 15.5612 28.4519 15.2527V14.1152C28.4519 13.973 28.3976 13.8365 28.3006 13.7341L16.3917 1.05203C16.1705 0.815991 15.7936 0.815991 15.5724 1.05203Z" fill="url(#paint0_linear_6_1346)"/>
<path d="M15.8136 11.53L3.90478 18.4789C3.67211 18.5528 3.51367 18.7675 3.51367 19.0121V19.9605C3.51367 20.2691 3.7649 20.5193 4.07464 20.5193H27.8909C28.2006 20.5193 28.4519 20.2691 28.4519 19.9605V19.0121C28.4519 18.769 28.2934 18.5528 28.0608 18.4789L16.1533 11.53C16.0434 11.4959 15.925 11.4959 15.815 11.53H15.8136Z" fill="url(#paint1_linear_6_1346)"/>
<path d="M15.8136 19.6604L3.90478 23.4114C3.67211 23.4854 3.51367 23.7001 3.51367 23.9446V24.893C3.51367 25.2016 3.7649 25.4519 4.07464 25.4519H27.8909C28.2006 25.4519 28.4519 25.2016 28.4519 24.893V23.9446C28.4519 23.7015 28.2934 23.4854 28.0608 23.4114L16.1533 19.6618C16.0434 19.6277 15.925 19.6277 15.815 19.6618L15.8136 19.6604Z" fill="url(#paint2_linear_6_1346)"/>
<defs>
<linearGradient id="paint0_linear_6_1346" x1="15.9821" y1="0.874289" x2="15.9821" y2="15.8115" gradientUnits="userSpaceOnUse">
<stop stop-color="#F234BA"/>
<stop offset="1" stop-color="#E01659"/>
</linearGradient>
<linearGradient id="paint1_linear_6_1346" x1="15.9821" y1="11.5044" x2="15.9821" y2="20.5193" gradientUnits="userSpaceOnUse">
<stop stop-color="#F3C4DC"/>
<stop offset="1" stop-color="#E274AB"/>
</linearGradient>
<linearGradient id="paint2_linear_6_1346" x1="15.9821" y1="25.4504" x2="15.9821" y2="19.6348" gradientUnits="userSpaceOnUse">
<stop stop-color="#F1B7D4"/>
<stop offset="1" stop-color="#F9E3EE"/>
</linearGradient>
</defs>
</svg>
