<svg width="119" height="28" viewBox="0 0 119 28" fill="none" xmlns="http://www.w3.org/2000/svg">
<g clip-path="url(#clip0_6_1343)">
<path d="M2.62844 20.9303C2.45829 20.7264 2.30772 20.5335 2.16694 20.3394V28L8.59359 24.5063C8.35856 24.4547 8.12108 24.397 7.87993 24.3269C5.00079 23.4916 3.24662 21.6723 2.62844 20.9303ZM19.8874 17.0128C19.7429 17.1774 19.5887 17.3346 19.4283 17.4845C19.4479 17.6626 19.4614 17.8371 19.4712 18.009C19.6168 17.7044 19.7588 17.3727 19.8874 17.0128ZM4.12799 14.105C3.85011 13.621 3.61386 13.1124 3.42902 12.5854C2.91366 11.1101 2.83164 9.62734 3.1695 8.25762C2.92223 8.60896 2.68352 8.99223 2.47297 9.41482C2.47297 9.41588 2.47297 9.41588 2.47297 9.41588C2.35301 9.65174 2.25631 9.87163 2.16694 10.0829V17.1858C2.56356 16.1846 3.2405 15.1343 4.12799 14.1049M14.8329 18.1023C16.0118 17.9365 17.0474 17.5237 17.8957 16.912C17.6852 15.9046 17.2873 14.826 16.7254 13.7426C16.1856 14.0448 15.5723 14.2561 14.8991 14.3506C12.6295 14.6676 10.2241 13.6001 8.81393 11.8348C7.7416 12.5878 6.75618 13.4158 5.91888 14.2659C7.90196 16.9365 11.4691 18.5741 14.8329 18.1023ZM17.1294 11.4712C17.5909 10.7084 17.6631 9.76984 17.3326 8.82393C17.3326 8.82288 17.3326 8.82288 17.3326 8.82288C17.3057 8.7418 17.269 8.66318 17.2359 8.58333C16.5859 8.57103 15.8233 8.67178 14.9872 8.88184C15.7829 9.72333 16.4855 10.6164 17.0853 11.5316C17.1 11.5107 17.1147 11.4911 17.1294 11.4714M5.33375 4.36713C6.08292 3.95069 6.79658 3.55636 8.07089 3.20748L2.16694 0V7.23924C3.52572 5.41499 5.11219 4.4912 5.33375 4.36713ZM14.7032 12.9466C15.1916 12.8778 15.6335 12.7292 16.0204 12.5154C15.3165 11.4049 14.4535 10.3263 13.4619 9.35585C13.293 9.41727 13.1241 9.48238 12.9527 9.5524C11.9465 9.96025 10.9476 10.475 9.99399 11.0609C11.1018 12.3938 12.9527 13.1923 14.7032 12.9466ZM9.19709 9.67893C9.21667 9.73299 9.24115 9.78458 9.26196 9.8374C10.229 9.25143 11.2426 8.72935 12.2794 8.29816C11.4164 7.59795 10.5424 7.04146 9.69898 6.63606C9.59003 6.76013 9.4872 6.89035 9.40151 7.03162C8.93879 7.79327 8.86657 8.7318 9.19709 9.67771V9.67877M5.14769 13.0129C6.0058 12.1701 6.99121 11.3594 8.0562 10.6199C7.98643 10.4651 7.92032 10.3091 7.86401 10.1481C7.86401 10.1471 7.86401 10.1471 7.86401 10.1481C7.3915 8.7956 7.51024 7.42589 8.19698 6.29694C8.23737 6.22938 8.28511 6.16919 8.32918 6.10407C7.54574 5.87559 6.81617 5.80064 6.17962 5.89278C5.78545 6.2478 5.4378 6.65074 5.15993 7.10894C4.6409 7.96149 4.37893 8.93319 4.37893 9.94912C4.37893 10.6592 4.50624 11.3889 4.76209 12.121C4.86858 12.4269 5.00324 12.7254 5.14769 13.0166M15.0276 19.5052C11.2671 20.0322 7.27766 18.262 4.9555 15.3297C4.0827 16.3886 3.47553 17.4463 3.25764 18.3861C3.17073 18.7559 3.15481 19.0814 3.19766 19.3652C3.35067 19.5752 3.51838 19.789 3.71056 20.0199C4.24795 20.6649 5.76587 22.2397 8.27165 22.967C9.15669 23.2237 9.98909 23.3281 10.7321 23.3429L17.9741 19.4057C18.0304 19.1183 18.0634 18.8111 18.0659 18.4905C17.1747 19.0015 16.1513 19.348 15.0276 19.5052ZM11.8265 5.55504C11.5523 5.59557 11.2916 5.65823 11.0467 5.743C11.9661 6.2614 12.8988 6.93213 13.8071 7.74167C14.4412 7.54512 15.0459 7.40262 15.6176 7.31049L12.3174 5.51696C12.1546 5.51696 11.9893 5.53416 11.8265 5.55504ZM21.147 17.6823L27.9225 14.0006L21.3282 10.4148C22.2548 13.3213 21.846 15.8347 21.147 17.6823ZM9.7663 4.31798C9.73203 4.31798 9.69898 4.31798 9.66592 4.31798C9.19219 4.38679 8.74294 4.49611 8.31694 4.64353C8.68418 4.72829 9.05754 4.84622 9.43701 4.98872C9.73325 4.78358 10.0601 4.61404 10.4077 4.47524L10.0613 4.28851C9.96461 4.30079 9.86301 4.30079 9.7663 4.31553M18.3339 12.2083C18.1968 12.4331 18.0365 12.637 17.8651 12.8311C18.3952 13.8127 18.8052 14.7991 19.0794 15.7573C19.1884 15.6123 19.2949 15.4662 19.3904 15.3101C20.2509 13.8925 20.4003 12.1604 19.8262 10.4185C19.787 10.3632 19.7527 10.3042 19.7282 10.2391C19.678 10.0929 19.6132 9.94919 19.5532 9.80546C19.4871 9.74404 19.4332 9.66788 19.3965 9.58189C19.339 9.45658 19.2667 9.3448 19.1774 9.24652L18.853 9.06962C19.0721 10.1826 18.8995 11.2771 18.3339 12.2083ZM2.09717 17.3567C1.78869 16.5926 1.5659 15.6418 1.52305 15.2733C1.42145 14.3913 1.42145 14.3913 1.41288 13.5203C1.41044 13.2488 1.44104 12.852 1.48878 12.5547C1.59895 11.8729 1.72871 11.1138 2.16694 10.0831V7.23924C1.82541 7.69622 1.49857 8.20603 1.21213 8.77725C0.416447 10.3607 0.231604 11.497 0.0945022 12.3262C0.0345203 12.7083 -0.00342771 13.1825 0.000244742 13.535C0.0100389 14.4711 0.0100389 14.4895 0.121433 15.4367C0.187536 16.0079 0.500911 17.2867 0.919562 18.1945C1.24395 18.9046 1.54386 19.4537 1.90865 19.9868C1.93926 20.0446 1.97476 20.0962 2.0176 20.1416C2.06412 20.208 2.11676 20.2731 2.16694 20.3394V17.186C2.14369 17.2437 2.11675 17.3002 2.09717 17.3567ZM10.4738 4.25289C10.5485 4.25289 10.6281 4.25289 10.7064 4.25289C10.8484 4.25289 10.9892 4.251 11.1312 4.25478C10.879 4.3125 10.6391 4.39358 10.4077 4.48449L12.3174 5.52376C13.8133 5.47585 15.3226 6.14536 16.3362 7.2227C16.1024 7.24481 15.8624 7.27798 15.6176 7.31729L18.853 9.07643C18.8444 9.0408 18.8407 9.00395 18.8334 8.9671C18.9668 9.05063 19.0807 9.14399 19.1774 9.25332L21.3282 10.4216C21.3 10.3393 21.2792 10.2582 21.2523 10.1759C21.2351 10.1292 21.2143 10.085 21.1874 10.0408C21.1653 9.97197 21.147 9.9044 21.1225 9.83561C20.5019 8.06173 19.3145 6.50405 17.8063 5.31124C17.7672 5.2535 17.7207 5.20068 17.6631 5.15645C15.3483 3.35678 13.0212 2.94892 11.84 2.86539C11.7763 2.86539 11.7176 2.86539 11.6563 2.85309C10.9464 2.79781 10.2302 2.81256 9.52393 2.91205C9.48231 2.91205 9.43946 2.92679 9.39662 2.93171C9.09304 2.97471 8.82862 3.02384 8.61685 3.07298C8.42222 3.11844 8.24227 3.16512 8.07089 3.21058L10.0613 4.29406C10.1996 4.28045 10.338 4.26457 10.4738 4.25598M17.9741 19.4057C17.9104 19.7386 17.8112 20.0507 17.668 20.3271C17.6191 20.4229 17.5946 20.5249 17.5909 20.6232C17.3804 20.8332 17.231 20.9598 17.1882 20.9978C16.0326 21.9671 15.128 22.4732 13.7263 22.929C13.2085 23.0973 12.1289 23.3748 10.7321 23.3429L8.59359 24.5063C11.1936 25.0751 13.3212 24.5493 14.1621 24.2766C15.7364 23.7655 16.8026 23.171 18.0928 22.0838C18.3535 21.8664 19.7135 20.676 20.6512 18.81C20.8238 18.4697 20.9927 18.0926 21.147 17.6823L17.9741 19.4057ZM2.62844 20.9303C2.45829 20.7264 2.30772 20.5335 2.16694 20.3394V28L8.59359 24.5063C8.35856 24.4547 8.12108 24.397 7.87993 24.3269C5.00079 23.4916 3.24662 21.6723 2.62844 20.9303ZM19.8874 17.0128C19.7429 17.1774 19.5887 17.3346 19.4283 17.4845C19.4479 17.6626 19.4614 17.8371 19.4712 18.009C19.6168 17.7044 19.7588 17.3727 19.8874 17.0128ZM4.12799 14.105C3.85011 13.621 3.61386 13.1124 3.42902 12.5854C2.91366 11.1101 2.83164 9.62734 3.1695 8.25762C2.92223 8.60896 2.68352 8.99223 2.47297 9.41482C2.47297 9.41588 2.47297 9.41588 2.47297 9.41588C2.35301 9.65174 2.25631 9.87163 2.16694 10.0829V17.1858C2.56356 16.1846 3.2405 15.1343 4.12799 14.1049M14.8329 18.1023C16.0118 17.9365 17.0474 17.5237 17.8957 16.912C17.6852 15.9046 17.2873 14.826 16.7254 13.7426C16.1856 14.0448 15.5723 14.2561 14.8991 14.3506C12.6295 14.6676 10.2241 13.6001 8.81393 11.8348C7.7416 12.5878 6.75618 13.4158 5.91888 14.2659C7.90196 16.9365 11.4691 18.5741 14.8329 18.1023ZM17.1294 11.4712C17.5909 10.7084 17.6631 9.76984 17.3326 8.82393C17.3326 8.82288 17.3326 8.82288 17.3326 8.82288C17.3057 8.7418 17.269 8.66318 17.2359 8.58333C16.5859 8.57103 15.8233 8.67178 14.9872 8.88184C15.7829 9.72333 16.4855 10.6164 17.0853 11.5316C17.1 11.5107 17.1147 11.4911 17.1294 11.4714M5.33375 4.36713C6.08292 3.95069 6.79658 3.55636 8.07089 3.20748L2.16694 0V7.23924C3.52572 5.41499 5.11219 4.4912 5.33375 4.36713ZM14.7032 12.9466C15.1916 12.8778 15.6335 12.7292 16.0204 12.5154C15.3165 11.4049 14.4535 10.3263 13.4619 9.35585C13.293 9.41727 13.1241 9.48238 12.9527 9.5524C11.9465 9.96025 10.9476 10.475 9.99399 11.0609C11.1018 12.3938 12.9527 13.1923 14.7032 12.9466ZM9.19709 9.67893C9.21667 9.73299 9.24115 9.78458 9.26196 9.8374C10.229 9.25143 11.2426 8.72935 12.2794 8.29816C11.4164 7.59795 10.5424 7.04146 9.69898 6.63606C9.59003 6.76013 9.4872 6.89035 9.40151 7.03162C8.93879 7.79327 8.86657 8.7318 9.19709 9.67771V9.67877M5.14769 13.0129C6.0058 12.1701 6.99121 11.3594 8.0562 10.6199C7.98643 10.4651 7.92032 10.3091 7.86401 10.1481C7.86401 10.1471 7.86401 10.1471 7.86401 10.1481C7.3915 8.7956 7.51024 7.42589 8.19698 6.29694C8.23737 6.22938 8.28511 6.16919 8.32918 6.10407C7.54574 5.87559 6.81617 5.80064 6.17962 5.89278C5.78545 6.2478 5.4378 6.65074 5.15993 7.10894C4.6409 7.96149 4.37893 8.93319 4.37893 9.94912C4.37893 10.6592 4.50624 11.3889 4.76209 12.121C4.86858 12.4269 5.00324 12.7254 5.14769 13.0166M15.0276 19.5052C11.2671 20.0322 7.27766 18.262 4.9555 15.3297C4.0827 16.3886 3.47553 17.4463 3.25764 18.3861C3.17073 18.7559 3.15481 19.0814 3.19766 19.3652C3.35067 19.5752 3.51838 19.789 3.71056 20.0199C4.24795 20.6649 5.76587 22.2397 8.27165 22.967C9.15669 23.2237 9.98909 23.3281 10.7321 23.3429L17.9741 19.4057C18.0304 19.1183 18.0634 18.8111 18.0659 18.4905C17.1747 19.0015 16.1513 19.348 15.0276 19.5052ZM11.8265 5.55504C11.5523 5.59557 11.2916 5.65823 11.0467 5.743C11.9661 6.2614 12.8988 6.93213 13.8071 7.74167C14.4412 7.54512 15.0459 7.40262 15.6176 7.31049L12.3174 5.51696C12.1546 5.51696 11.9893 5.53416 11.8265 5.55504ZM21.147 17.6823L27.9225 14.0006L21.3282 10.4148C22.2548 13.3213 21.846 15.8347 21.147 17.6823ZM9.7663 4.31798C9.73203 4.31798 9.69898 4.31798 9.66592 4.31798C9.19219 4.38679 8.74294 4.49611 8.31694 4.64353C8.68418 4.72829 9.05754 4.84622 9.43701 4.98872C9.73325 4.78358 10.0601 4.61404 10.4077 4.47524L10.0613 4.28851C9.96461 4.30079 9.86301 4.30079 9.7663 4.31553M18.3339 12.2083C18.1968 12.4331 18.0365 12.637 17.8651 12.8311C18.3952 13.8127 18.8052 14.7991 19.0794 15.7573C19.1884 15.6123 19.2949 15.4662 19.3904 15.3101C20.2509 13.8925 20.4003 12.1604 19.8262 10.4185C19.787 10.3632 19.7527 10.3042 19.7282 10.2391C19.678 10.0929 19.6132 9.94919 19.5532 9.80546C19.4871 9.74404 19.4332 9.66788 19.3965 9.58189C19.339 9.45658 19.2667 9.3448 19.1774 9.24652L18.853 9.06962C19.0721 10.1826 18.8995 11.2771 18.3339 12.2083ZM2.09717 17.3567C1.78869 16.5926 1.5659 15.6418 1.52305 15.2733C1.42145 14.3913 1.42145 14.3913 1.41288 13.5203C1.41044 13.2488 1.44104 12.852 1.48878 12.5547C1.59895 11.8729 1.72871 11.1138 2.16694 10.0831V7.23924C1.82541 7.69622 1.49857 8.20603 1.21213 8.77725C0.416447 10.3607 0.231604 11.497 0.0945022 12.3262C0.0345203 12.7083 -0.00342771 13.1825 0.000244742 13.535C0.0100389 14.4711 0.0100389 14.4895 0.121433 15.4367C0.187536 16.0079 0.500911 17.2867 0.919562 18.1945C1.24395 18.9046 1.54386 19.4537 1.90865 19.9868C1.93926 20.0446 1.97476 20.0962 2.0176 20.1416C2.06412 20.208 2.11676 20.2731 2.16694 20.3394V17.186C2.14369 17.2437 2.11675 17.3002 2.09717 17.3567ZM10.4738 4.25289C10.5485 4.25289 10.6281 4.25289 10.7064 4.25289C10.8484 4.25289 10.9892 4.251 11.1312 4.25478C10.879 4.3125 10.6391 4.39358 10.4077 4.48449L12.3174 5.52376C13.8133 5.47585 15.3226 6.14536 16.3362 7.2227C16.1024 7.24481 15.8624 7.27798 15.6176 7.31729L18.853 9.07643C18.8444 9.0408 18.8407 9.00395 18.8334 8.9671C18.9668 9.05063 19.0807 9.14399 19.1774 9.25332L21.3282 10.4216C21.3 10.3393 21.2792 10.2582 21.2523 10.1759C21.2351 10.1292 21.2143 10.085 21.1874 10.0408C21.1653 9.97197 21.147 9.9044 21.1225 9.83561C20.5019 8.06173 19.3145 6.50405 17.8063 5.31124C17.7672 5.2535 17.7207 5.20068 17.6631 5.15645C15.3483 3.35678 13.0212 2.94892 11.84 2.86539C11.7763 2.86539 11.7176 2.86539 11.6563 2.85309C10.9464 2.79781 10.2302 2.81256 9.52393 2.91205C9.48231 2.91205 9.43946 2.92679 9.39662 2.93171C9.09304 2.97471 8.82862 3.02384 8.61685 3.07298C8.42222 3.11844 8.24227 3.16512 8.07089 3.21058L10.0613 4.29406C10.1996 4.28045 10.338 4.26457 10.4738 4.25598M17.9741 19.4057C17.9104 19.7386 17.8112 20.0507 17.668 20.3271C17.6191 20.4229 17.5946 20.5249 17.5909 20.6232C17.3804 20.8332 17.231 20.9598 17.1882 20.9978C16.0326 21.9671 15.128 22.4732 13.7263 22.929C13.2085 23.0973 12.1289 23.3748 10.7321 23.3429L8.59359 24.5063C11.1936 25.0751 13.3212 24.5493 14.1621 24.2766C15.7364 23.7655 16.8026 23.171 18.0928 22.0838C18.3535 21.8664 19.7135 20.676 20.6512 18.81C20.8238 18.4697 20.9927 18.0926 21.147 17.6823L17.9741 19.4057ZM28.0178 2.82167V7.09H32.9776V24.8487H38.5262V7.09H43.4908V2.82167H28.0178ZM52.3742 2.87839V7.34525H57.3812V2.87839H52.3742ZM81.2713 2.97765V25H83.8619L84.7898 22.7737C85.7752 24.2601 87.038 25.1843 88.9819 25.1843C93.1733 25.1843 94.653 20.6046 94.653 17.0495C94.653 12.5644 92.8062 9.10363 89.3493 9.10363C88.3357 9.10363 87.0376 9.62599 86.3301 10.3704H86.2688V2.97765H81.2713ZM95.953 2.97765V25H100.946V2.97765H95.953ZM109.118 8.63568C104.525 8.63568 102.246 12.3468 102.246 16.7422C102.246 21.0393 104.403 24.9055 109.179 24.9055C113.622 24.9055 115.162 21.3829 115.378 20.6655L112.019 19.4271C111.709 20.6985 110.693 21.5683 109.49 21.5683C107.512 21.5683 107.239 19.2462 107.239 17.8814H115.595V16.832C115.595 12.7831 113.929 8.63568 109.118 8.63568ZM51.0695 9.10363C49.0974 9.10363 46.8796 9.87202 46.2651 11.8216H46.1991V9.47233H41.3005V25H46.2933V14.9507C46.8503 14.1768 47.3746 13.7407 49.0394 13.7407C49.7494 13.7407 50.3901 13.9274 51.0695 14.1755V9.10363ZM68.5302 9.10363C66.7418 9.10363 65.1718 9.9629 64.1215 11.5427H64.0602V9.47233H59.0674V25H64.0602V13.6461L64.3381 13.2774C64.6797 12.8438 65.1107 12.6299 65.6334 12.6299C66.5601 12.6299 66.8345 13.1879 66.8345 14.0196V25H71.8273V13.6461L72.1052 13.2774C72.4456 12.8438 72.8717 12.6299 73.4006 12.6299C74.3235 12.6299 74.6017 13.1879 74.6017 14.0196V25H79.5945V12.4124C79.5945 10.1865 78.1138 9.10363 76.1136 9.10363C74.3252 9.10363 72.7552 9.9629 71.7049 11.5427H71.6436C71.5506 10.055 70.042 9.10363 68.5302 9.10363ZM52.3836 9.47233V25H57.3812V9.47233H52.3836ZM109.09 11.7885C110.818 11.7885 110.94 13.4621 110.969 14.9129H107.239C107.239 13.4621 107.672 11.7885 109.09 11.7885ZM87.9362 11.883C89.4762 11.883 89.4718 13.493 89.4718 16.5862V17.7632C89.4718 20.6378 89.289 22.0315 87.9033 22.0315C86.9509 22.0315 86.1795 21.3199 86.2688 20.0226V12.7811L86.5467 12.507C86.854 12.2576 87.318 11.883 87.9362 11.883ZM23.204 22.145C22.4499 22.145 21.838 22.7365 21.838 23.4638C21.838 24.2058 22.4499 24.8015 23.204 24.8015C23.9556 24.8015 24.5605 24.2058 24.5605 23.4638C24.5605 22.7365 23.9556 22.145 23.204 22.145ZM117.648 22.2962C116.893 22.2962 116.282 22.8925 116.282 23.6198C116.282 24.3593 116.893 24.9575 117.648 24.9575C118.399 24.9575 119 24.3593 119 23.6198C119 22.8925 118.399 22.2962 117.648 22.2962ZM23.204 22.405C23.8099 22.405 24.3061 22.8741 24.3061 23.4638C24.3061 24.0694 23.8099 24.5415 23.204 24.5415C22.587 24.5415 22.0971 24.0694 22.0971 23.4638C22.0971 22.8741 22.587 22.405 23.204 22.405ZM117.648 22.5609C118.254 22.5609 118.746 23.0313 118.746 23.6198C118.746 24.2254 118.254 24.6975 117.648 24.6975C117.03 24.6975 116.541 24.2254 116.541 23.6198C116.541 23.0313 117.03 22.5609 117.648 22.5609ZM22.6952 22.7264V24.2153H22.9213V23.5299H23.1851L23.6232 24.2153H23.8822L23.4206 23.5299C23.6936 23.525 23.9011 23.4148 23.9011 23.1187C23.9011 22.9959 23.8429 22.8612 23.7315 22.7973C23.6152 22.7371 23.4855 22.7264 23.3594 22.7264H22.6952ZM117.135 22.8824V24.3713H117.361V23.6859H117.629L118.067 24.3713H118.326L117.865 23.6859C118.137 23.6786 118.341 23.5708 118.341 23.2747C118.341 23.1519 118.288 23.0184 118.176 22.9533C118.061 22.8931 117.931 22.8824 117.804 22.8824H117.135ZM22.9213 22.8965H23.317C23.5067 22.8965 23.675 22.9211 23.675 23.114C23.675 23.3818 23.3817 23.3456 23.1663 23.3456H22.9213V22.8965ZM117.361 23.0525H117.757C117.947 23.0525 118.119 23.0746 118.119 23.27C118.119 23.5353 117.821 23.4969 117.606 23.4969H117.361V23.0525Z" fill="white"/>
</g>
<defs>
<clipPath id="clip0_6_1343">
<rect width="119" height="28" fill="white"/>
</clipPath>
</defs>
</svg>
