<svg width="94" height="28" viewBox="0 0 94 28" fill="none" xmlns="http://www.w3.org/2000/svg">
<path d="M51.834 21.8145C51.8363 23.466 51.1963 25.0168 50.0322 26.1855C48.8681 27.3543 47.3222 28 45.6738 28H45.667C44.9704 28 44.2929 27.8877 43.6465 27.6631C43.0191 27.4456 42.435 27.1295 41.9102 26.7256L41.7168 26.5781L43.8613 23.8838L44.0449 24.0205C44.8798 24.6347 45.9704 24.7253 46.8936 24.2568C47.8165 23.7883 48.3886 22.854 48.3887 21.8193L48.3916 21.8164V7.31055H51.834V21.8145ZM68.9121 7.1582C72.9746 7.1582 76.2782 10.4707 76.2783 14.541C76.2783 18.6114 72.9747 21.9219 68.9121 21.9219C64.8496 21.9218 61.543 18.6114 61.543 14.541C61.5431 10.4708 64.8497 7.15829 68.9121 7.1582ZM38.6641 7.1582C40.1908 7.1582 41.6867 7.64104 42.9248 8.52539V7.44922H46.3125V21.6299H42.9248L42.9219 21.6328V20.5576C41.6601 21.456 40.1551 21.9198 38.6406 21.9199C37.5696 21.9199 36.4936 21.6875 35.4941 21.2119C32.9369 19.9953 31.2832 17.3781 31.2832 14.541C31.2833 10.4707 34.5899 7.1582 38.6523 7.1582H38.6641ZM23.0576 7.51855L23.9385 10.8848H22.2373L24.8135 17.9658L25.2617 12.6553H26.4023L27.8389 7.51855H31.9365L26.584 21.6182H22.7764L17.4209 7.51855H23.0576ZM60.6826 7.1582C60.9474 7.1582 61.194 7.16956 61.4492 7.19824L61.6611 7.22266V10.6719L61.375 10.6143C60.3731 10.4111 59.3398 10.6667 58.5479 11.3145C57.7536 11.9621 57.2979 12.923 57.2979 13.9482C57.2979 13.9937 57.2984 14.0371 57.3008 14.0801L57.3174 14.333H57.2979V21.6162H53.9131V7.44727H57.2979V8.06836C58.3259 7.47092 59.4876 7.15828 60.6826 7.1582ZM38.6523 10.6738C36.5245 10.6738 34.7949 12.4071 34.7949 14.5391C34.795 16.671 36.5245 18.4033 38.6523 18.4033C40.7801 18.4032 42.5096 16.6709 42.5098 14.5391C42.5098 12.4071 40.7801 10.6739 38.6523 10.6738ZM68.9121 10.6738C66.7843 10.6739 65.0547 12.4071 65.0547 14.5391C65.0548 16.6709 66.7844 18.4032 68.9121 18.4033C71.0399 18.4033 72.7694 16.671 72.7695 14.5391C72.7695 12.4071 71.04 10.6738 68.9121 10.6738ZM52.707 2.65039L50.0625 5.2998L47.417 2.65039L50.0625 0L52.707 2.65039Z" fill="white"/>
</svg>
